HIERARCHY
ROOT Hips
{
  OFFSET 3.13124 94.3669 -3.18751
  CHANNELS  6 Xposition Yposition Zposition Zrotation Xrotation Yrotation
  JOINT LeftUpLeg
  {
    OFFSET 8.64259 1.95398 -2.38835
    CHANNELS 3 Zrotation Xrotation Yrotation
    JOINT LeftLeg
    {
      OFFSET 43.7702 0 0
      CHANNELS 3 Zrotation Xrotation Yrotation
      JOINT LeftFoot
      {
        OFFSET 40.6238 0 0
        CHANNELS 3 Zrotation Xrotation Yrotation
        JOINT LeftToeBase
        {
          OFFSET 12.7242 0 0
          CHANNELS 3 Zrotation Xrotation Yrotation
          End Site
          {
            OFFSET 0 0 0
          }
        }
      }
    }
  }
  JOINT RightUpLeg
  {
    OFFSET -8.2249 1.95398 -2.59336
    CHANNELS 3 Zrotation Xrotation Yrotation
    JOINT RightLeg
    {
      OFFSET 43.5653 0 0
      CHANNELS 3 Zrotation Xrotation Yrotation
      JOINT RightFoot
      {
        OFFSET 40.6238 0 0
        CHANNELS 3 Zrotation Xrotation Yrotation
        JOINT RightToeBase
        {
          OFFSET 12.7242 0 0
          CHANNELS 3 Zrotation Xrotation Yrotation
          End Site
          {
            OFFSET 0 0 0
          }
        }
      }
    }
  }
  JOINT Spine
  {
    OFFSET 0.165834 0.87714 6.61349
    CHANNELS 3 Zrotation Xrotation Yrotation
    JOINT Spine1
    {
      OFFSET 7.38962 1.71661e-005 0
      CHANNELS 3 Zrotation Xrotation Yrotation
      JOINT Spine2
      {
        OFFSET 11.9445 1.14441e-005 0
        CHANNELS 3 Zrotation Xrotation Yrotation
        JOINT Spine3
        {
          OFFSET 14.7254 4.19617e-005 0
          CHANNELS 3 Zrotation Xrotation Yrotation
          JOINT Spine4
          {
            OFFSET 10.9679 0 0
            CHANNELS 3 Zrotation Xrotation Yrotation
            JOINT RightShoulder
            {
              OFFSET 2.46616 -1.6653 3.69651
              CHANNELS 3 Zrotation Xrotation Yrotation
              JOINT RightArm
              {
                OFFSET 13.0012 0 0
                CHANNELS 3 Zrotation Xrotation Yrotation
                JOINT RightForeArm
                {
                  OFFSET 28.7848 1.52588e-005 0
                  CHANNELS 3 Zrotation Xrotation Yrotation
                  JOINT RightHand
                  {
                    OFFSET 26.5688 1.52588e-005 0
                    CHANNELS 3 Zrotation Xrotation Yrotation
                    End Site
                    {
                      OFFSET 0 0 0
                    }
                  }
                }
              }
            }
            JOINT LeftShoulder
            {
              OFFSET 2.38034 -1.29275 -3.75231
              CHANNELS 3 Zrotation Xrotation Yrotation
              JOINT LeftArm
              {
                OFFSET 16.3182 6.10352e-005 0
                CHANNELS 3 Zrotation Xrotation Yrotation
                JOINT LeftForeArm
                {
                  OFFSET 27.0901 0 0
                  CHANNELS 3 Zrotation Xrotation Yrotation
                  JOINT LeftHand
                  {
                    OFFSET 24.5451 1.52588e-005 0
                    CHANNELS 3 Zrotation Xrotation Yrotation
                    End Site
                    {
                      OFFSET 0 0 0
                    }
                  }
                }
              }
            }
            JOINT Neck
            {
              OFFSET 5.0226 -0.0266342 0
              CHANNELS 3 Zrotation Xrotation Yrotation
              JOINT Head
              {
                OFFSET 6.69363 2.86102e-005 0
                CHANNELS 3 Zrotation Xrotation Yrotation
                End Site
                {
                  OFFSET 0 0 0
                }
              }
            }
          }
        }
      }
    }
  }
}
MOTION
Frames:	12
Frame Time:	0.0333333
-38.1667 98.6777 -69.9887 85.6544 -1.88293 88.1764 -177.669 8.44917 94.4629 -4.6078 53.6694 3.33237 31.2596 -3.80617 -5.26109 28.7808 3.42304e-006 1.98245e-006 177.12 5.42134 84.4906 -12.3867 5.42372 0.324246 35.3941 13.6336 14.0554 28.7808 1.41232e-005 1.7032e-005 2.53202 6.54941 -91.8681 13.7142 4.2106 -1.77634 2.04859 4.12835 -1.96016 -20.5398 4.54933 -0.426435 -0.527128 4.54931 -0.426451 86.9181 -31.9088 -111.944 23.8667 8.88585 -60.5224 93.4907 -11.7862 -91.1352 -4.4089 2.98486 -80.7189 -95.7426 -55.3405 71.7954 -0.0644792 -33.5959 28.4031 -144.836 -6.19593 -99.5228 84.5117 -12.505 -17.46 6.95459 -6.40454 29.6717 -38.1365 -2.78099 -29.3704 
-39.624 98.4099 -68.3082 84.6825 14.4563 86.0931 -178.297 10.7905 92.4309 -3.90648 30.4319 1.6686 30.2141 1.05073 -0.267254 28.7808 3.42304e-006 1.98245e-006 177.688 1.05066 84.7565 -4.96305 19.4523 1.19548 39.4357 12.948 12.3028 28.7808 1.41232e-005 1.7032e-005 2.10408 6.50752 -90.4495 13.8824 3.85187 -1.42326 2.2162 3.78519 -1.59168 -20.3648 4.10287 -0.197466 -0.352104 4.10287 -0.19748 87.846 -36.055 -108.534 23.1419 5.31405 -63.2456 91.0761 -8.17873 -91.8986 -4.64576 2.74605 -72.7501 -93.3402 -52.8923 74.4978 -11.2034 -26.6536 7.03602 -138.147 -9.65978 -101.864 88.4235 -13.4116 -17.554 7.98036 -5.08572 22.6828 -35.0355 -3.46019 -21.6927 
-40.8191 98.1063 -66.9605 83.2504 28.0903 87.8207 -178.848 12.7738 91.9559 -5.11581 6.02705 0.373497 33.5703 0.746298 -0.482477 28.7808 3.42304e-006 1.98245e-006 178.516 0.875047 85.621 -4.91298 28.3723 1.89168 41.882 12.6447 11.4724 28.7808 1.41232e-005 1.7032e-005 2.06358 6.43017 -90.2008 14.0639 3.84491 -1.46379 2.39749 3.77675 -1.63177 -20.1821 4.10735 -0.23874 -0.169404 4.10735 -0.238746 88.4344 -37.9301 -106.817 22.9713 3.58074 -64.1543 86.7178 -5.5829 -92.5724 -7.27238 3.80519 -66.0627 -91.3858 -52.624 77.2674 -19.7096 -16.2914 -10.5987 -130.747 -14.7978 -104.059 90.8554 -13.1344 -16.6879 7.69526 -3.34102 19.8004 -32.3185 -2.73541 -17.5186 
-41.6696 97.9655 -65.9608 82.2346 41.2619 89.3203 -179.252 12.5568 91.7555 -4.84316 -7.27102 -0.388605 34.4849 1.86306 0.677644 28.7808 3.42304e-006 1.98245e-006 179.079 0.411775 86.5481 -5.55486 36.0345 2.62679 42.9604 12.1171 10.8017 28.7808 1.41232e-005 1.7032e-005 2.19429 6.4158 -90.3111 14.0826 4.04738 -1.36169 2.41707 3.98351 -1.53874 -20.1686 4.26737 -0.0802018 -0.155958 4.26737 -0.0802108 89.6521 -40.922 -103.751 22.5856 0.689847 -67.5202 77.4475 -0.322336 -92.5969 -9.22056 5.03928 -65.7972 -88.8281 -52.003 80.8751 -26.3985 -3.3078 -26.1262 -122.077 -23.024 -105.827 92.0364 -11.2718 -14.7329 8.12491 -2.60804 15.3099 -30.8345 -2.66672 -12.428 
-42.4772 97.6196 -65.4091 80.6694 54.9525 91.7556 -179.942 11.9014 91.2559 -4.27783 -14.9422 -0.885914 37.9269 2.32195 1.16505 28.7808 3.42304e-006 1.98245e-006 179.482 0.804269 87.5759 -9.13358 43.1002 3.49933 44.3215 13.4769 11.566 28.7808 1.41232e-005 1.7032e-005 2.31627 6.38284 -90.8446 14.0984 4.11031 -1.22127 2.43326 4.05257 -1.40128 -20.1542 4.28639 0.0729034 -0.14156 4.2864 0.0728822 90.9535 -43.7262 -100.806 22.7182 -0.135365 -68.1655 73.9707 2.40617 -91.9595 -7.31912 3.57068 -63.5931 -89.7235 -50.1077 79.1647 -31.2254 7.78726 -35.2469 -114.4 -30.6627 -105.371 91.2977 -9.13546 -12.8556 8.32715 -1.86933 10.8027 -29.6893 -2.3688 -7.34623 
-43.279 97.5722 -64.9678 76.9262 68.4392 95.5881 179.335 12.0167 89.6486 -4.52486 -19.9596 -1.23723 37.1024 1.09642 0.0238338 28.7808 3.42304e-006 1.98245e-006 -179.974 -1.20273 87.9694 -8.25426 49.5946 4.47556 44.4634 14.5776 12.433 28.7808 1.41232e-005 1.7032e-005 2.31854 6.38171 -90.4708 14.1251 4.2548 -1.14783 2.46039 4.2 -1.33391 -20.1306 4.40374 0.184016 -0.118002 4.40372 0.183997 92.8612 -46.3712 -97.114 22.9916 -3.18569 -73.4869 69.4024 14.654 -87.9524 5.56112 -4.66137 -81.3661 -89.5533 -49.0094 79.1887 -36.6638 20.2152 -41.7277 -103.241 -38.1582 -100.911 90.0105 -6.6983 -10.7089 9.77719 -1.39968 6.67534 -30.1529 -2.27473 -2.57451 
-44.1169 97.1709 -64.8053 60.9535 80.803 111.818 178.65 12.8202 88.0553 -6.03686 -25.706 -1.68553 36.9201 -1.29252 -2.21299 28.7808 3.42304e-006 1.98245e-006 -179.343 -2.34143 88.6829 -8.42564 55.7136 5.70658 46.3265 14.8883 12.2318 28.7808 1.41232e-005 1.7032e-005 2.35912 6.33616 -90.169 14.2599 4.41303 -1.36954 2.59552 4.34846 -1.56274 -19.9999 4.6202 0.0228425 0.0127582 4.62019 0.0228318 93.4626 -45.9931 -96.2295 24.3042 -2.2918 -75.8852 69.5347 26.3088 -84.8017 21.2824 -20.1874 -90.2914 -89.2842 -49.4412 79.6845 -43.1925 32.2589 -42.9307 -88.0191 -42.293 -91.588 88.5807 -3.90859 -8.12567 10.4203 -0.165895 7.96769 -30.4109 -1.42971 -2.31468 
-45.0394 97.5807 -65.1247 -40.5449 84.172 -145.307 177.622 12.2217 87.4762 -5.43148 -33.8807 -2.44854 34.465 -2.66047 -3.68875 28.7808 3.42304e-006 1.98245e-006 -179.711 -2.12936 89.0574 -11.014 41.633 3.33442 40.5417 19.7533 17.897 28.7808 1.41232e-005 1.7032e-005 2.65935 6.17935 -91.214 14.4954 4.6607 -1.63446 2.83156 4.58427 -1.83835 -19.7705 4.93596 -0.154898 0.242142 4.93598 -0.154919 93.8152 -44.6938 -95.8519 24.3205 -0.0553122 -72.231 70.7064 23.9912 -85.937 18.1114 -16.2246 -85.8777 -88.2284 -50.4044 81.4553 -52.5095 43.8775 -36.8609 -71.5802 -41.0526 -80.8723 87.2764 -1.16986 -5.45576 10.4762 1.4109 11.2789 -30.5983 -0.285448 -3.73183 
-46.2918 97.5119 -65.5494 -74.3138 73.8802 -111.819 176.515 11.9964 85.2052 -6.31075 -42.1719 -3.42121 28.3587 -3.57365 -5.28687 28.7808 3.42304e-006 1.98245e-006 -179.002 -4.29693 89.5657 -9.04892 49.818 4.52075 41.1829 18.967 17.0287 28.7808 1.41232e-005 1.7032e-005 2.67356 6.06451 -90.9316 14.7675 4.77306 -1.94249 3.10352 4.68293 -2.151 -19.501 5.13567 -0.414721 0.511657 5.13566 -0.41474 92.9809 -41.8914 -97.8205 24.3352 4.7317 -62.7778 83.384 11.7853 -91.9647 12.8771 -8.8172 -70.9637 -86.8168 -51.9117 83.805 -66.1026 53.3334 -22.0891 -57.5152 -34.7991 -73.538 85.8801 1.82274 -2.3977 8.28322 3.11348 16.382 -29.1342 1.18103 -6.67861 
-47.8592 97.5835 -66.3336 -82.2873 63.3605 -103.949 175.829 11.1535 83.6003 -6.17352 -38.0858 -2.90112 22.4021 -8.39059 -11.7391 28.7808 3.42304e-006 1.98245e-006 -178.401 -6.58013 90.0611 -8.71035 54.8161 5.50309 40.149 18.9411 17.3792 28.7808 1.41232e-005 1.7032e-005 2.7344 6.00803 -90.8197 14.9265 4.91425 -2.31032 3.26239 4.80781 -2.5247 -19.3448 5.38083 -0.722894 0.66785 5.38083 -0.72292 92.2817 -39.245 -99.6472 24.3855 9.62098 -58.1121 90.0379 4.12182 -92.8149 -1.95054 0.739641 -59.8848 -85.88 -53.1538 85.3574 -84.7159 59.1753 0.905378 -47.327 -26.1238 -71.7202 84.2851 4.81784 0.833619 5.6006 4.16721 21.0217 -27.6312 2.22134 -9.25227 
-49.694 97.3559 -67.3686 -85.7539 52.9119 -98.7607 175.686 9.14646 83.9642 -4.75481 -24.6228 -1.5972 26.2207 -10.5166 -13.2906 28.7808 3.42304e-006 1.98245e-006 -177.63 -5.93474 92.3747 -14.8356 55.4068 5.72372 37.1795 20.0083 19.1348 28.7808 1.41232e-005 1.7032e-005 2.90408 5.86421 -91.8359 15.1209 4.96263 -2.65472 3.45625 4.84102 -2.87085 -19.1502 5.53045 -1.03687 0.862461 5.53047 -1.03689 90.1961 -38.931 -103.401 24.7499 7.37968 -57.8297 75.1256 12.4693 -90.124 -1.35498 0.938215 -73.652 -85.005 -53.4787 86.6682 -105.661 60.2557 28.6058 -38.2491 -17.4283 -73.4046 81.5924 7.69609 4.28194 4.23212 4.32938 22.5076 -27.1839 2.39913 -9.57081 
-51.7291 97.4502 -68.1542 -89.022 42.2665 -95.1873 175.183 6.50051 83.3099 -4.28228 -14.9751 -0.888923 27.601 -11.5508 -14.1085 28.7808 3.42304e-006 1.98245e-006 -177.674 -4.09342 93.7196 -23.4981 51.1683 4.87321 34.6811 18.6701 18.7491 28.7808 1.41232e-005 1.7032e-005 2.8629 5.89213 -92.1882 15.0307 4.91973 -2.62138 3.36596 4.7996 -2.83564 -19.2393 5.47952 -1.01802 0.773324 5.47953 -1.01805 92.6004 -40.5667 -98.7678 26.2133 1.97384 -73.6401 70.0969 50.516 -79.6824 32.2208 -33.7756 -93.0954 -84.5569 -52.5068 87.2142 -121.657 56.7183 52.7578 -28.4601 -9.9582 -77.1969 76.9821 10.3178 8.161 4.607 3.97121 21.3526 -27.801 2.19973 -9.37249 
